{"asset":{"version":"2.0","generator":"Unity 6000.0.13f1 glTFast 6.2.0"},"nodes":[{"name":"Directional Light","children":[1],"rotation":[-0.4084266,-0.326488048,0.8373985,-0.15923889]},{"name":"Directional Light_Orientation","rotation":[0,-1,0,-4.371139E-08],"extensions":{"KHR_lights_punctual":{"light":0}}},{"name":"Directional Light (1)","children":[3],"rotation":[-0.6124707,0.273732871,-0.7020884,-0.238792375]},{"name":"Directional Light (1)_Orientation","rotation":[0,-1,0,-4.371139E-08],"extensions":{"KHR_lights_punctual":{"light":1}}},{"name":"Lighting","children":[0,2],"translation":[-5.22999954,0,2.73000145]},{"name":"Cylinder","mesh":0,"translation":[6.78000069,4.14,0.710000038],"scale":[0.15,1.15,0.15]},{"name":"Wall_Prefab","mesh":1,"translation":[-15.377,0,12.486],"rotation":[2.18556941E-08,0,0,1]},{"name":"Stairs_650_400_300_Prefab","mesh":2,"translation":[-8.665093,2.15273166,16.1254177],"rotation":[0,-0.7071068,0,0.7071068],"scale":[1,1.003,0.9774802]},{"name":"Box_100x100x100_Prefab","mesh":3,"translation":[10.2310009,0.5,10.986]},{"name":"Box_100x100x100_Prefab (1)","mesh":3,"translation":[10.2310009,0.5,11.986]},{"name":"Box_100x100x100_Prefab (2)","mesh":3,"translation":[9.231,0.5,10.986]},{"name":"Box_100x100x100_Prefab (3)","mesh":3,"translation":[9.231,0.5,11.986]},{"name":"Box_100x100x100_Prefab (4)","mesh":3,"translation":[4.217,0.5,26.677],"rotation":[0,0.0342903659,0,0.999411941]},{"name":"Box_100x100x100_Prefab (5)","mesh":3,"translation":[3.21935081,0.5,26.74554],"rotation":[0,0.0342903659,0,0.999411941]},{"name":"Box_100x100x100_Prefab (6)","mesh":3,"translation":[3.1508112,0.5,25.7478924],"rotation":[0,0.0342903659,0,0.999411941]},{"name":"Box_100x100x100_Prefab (7)","mesh":3,"translation":[4.14845848,0.5,25.6793518],"rotation":[0,0.0342903659,0,0.999411941]},{"name":"Box_100x100x100_Prefab (8)","mesh":3,"translation":[-3.775,0.5,18.1229973]},{"name":"Box_100x100x100_Prefab (9)","mesh":3,"translation":[-4.775,0.5,18.1229973]},{"name":"Box_100x100x100_Prefab (10)","mesh":3,"translation":[-5.775,0.5,18.123]},{"name":"Box_100x100x100_Prefab (11)","mesh":3,"translation":[-6.775,0.5,18.1230011]},{"name":"Box_100x100x100_Prefab (12)","mesh":3,"translation":[-7.77499962,0.5,18.1229973]},{"name":"Box_100x100x100_Prefab (13)","mesh":3,"translation":[-2.64899969,4.5,16.863],"rotation":[0,-0.119064406,0,0.9928866]},{"name":"Box_100x100x100_Prefab (14)","mesh":3,"translation":[-18.688,0.487,3.6278],"rotation":[0,0.534905553,0,0.8449119]},{"name":"Box_100x100x100_Prefab (15)","mesh":3,"translation":[-18.2602463,0.487,2.72390652],"rotation":[0,0.534905553,0,0.8449119]},{"name":"Box_100x100x100_Prefab (16)","mesh":3,"translation":[-10.77,0.5,-0.0190000534]},{"name":"Box_100x100x100_Prefab (17)","mesh":3,"translation":[-9.77,0.5,-0.0190000534]},{"name":"Ramp_Mesh","mesh":4,"translation":[-11.77,0.01,13.5],"rotation":[2.18556941E-08,0,0,1]},{"name":"Tunnel_Prefab","mesh":5,"translation":[-11.57,-0.005186558,24.59],"rotation":[-0.4072085,-0.5780841,-0.5780841,0.4072085]},{"name":"Box_350x200x250_Prefab","mesh":6,"translation":[8.386,0.00243484974,25.822],"rotation":[-0.6637225,0.243869692,0.243869692,0.6637225]},{"name":"Box_350x200x250_Prefab","mesh":6,"translation":[10.155,0.00243484974,6.175],"rotation":[-0.441324323,0.55247885,0.55247885,0.441324323]},{"name":"Box_350x300x250_Prefab","mesh":7,"translation":[7.06999969,0,0.89],"rotation":[-0.6161592,-0.346911937,-0.346911937,0.6161592]},{"name":"Stairs_200x100x200_Prefab","mesh":8,"translation":[-9.25,4.487,10.356],"rotation":[0,-1.4603138E-06,0,1]},{"name":"Stairs_200x100x200_Prefab(1)","mesh":8,"translation":[-7.25,5.484,8.353],"rotation":[0,-0.7071068,0,0.7071068]},{"name":"Tunnel_Prefab (1)","mesh":5,"translation":[-22.74,-0.005186558,55.83],"rotation":[-0.5974347,-0.3782483,-0.3782483,0.5974347]},{"name":"Box_350x200x250_Prefab (9)","mesh":6,"translation":[9.08,0,59.4400024],"rotation":[-0.7066705,-0.0248354487,-0.0248354338,0.7066705]},{"name":"Stairs_650_400_300_Prefab (1)","mesh":2,"translation":[22.28511,1.8593,49.93042],"rotation":[0,-0.7071068,0,0.7071068],"scale":[1,1.05147815,0.9774802]},{"name":"Structure_Prefab (1)","mesh":9,"translation":[27.57,0.0021935,46.18]},{"name":"Stairs_650_400_300_Prefab (2)","mesh":2,"translation":[-39.53623,1.735,34.124],"rotation":[0,-0.0241651423,0,0.999708],"scale":[1,1.003,0.977480352]},{"name":"Structure_Prefab (2)","mesh":9,"translation":[-33.71511,0.0028,30.8495789],"rotation":[0,0.999766469,0,0.0216104854],"scale":[1,0.7981,1]},{"name":"Box_350x300x250_Prefab (1)","mesh":7,"translation":[-8.2,0,43.68],"rotation":[-0.6161592,-0.346911937,-0.346911937,0.6161592]},{"name":"Box_350x200x250_Prefab (10)","mesh":6,"translation":[-34.9,0,-0.799999952],"rotation":[-0.6637225,0.243869692,0.243869692,0.6637225]},{"name":"Box_100x100x100_Prefab (18)","mesh":3,"translation":[-32.5,0.5,13.1],"rotation":[0,0.0342903659,0,0.999411941]},{"name":"Tunnel_Prefab (2)","mesh":5,"translation":[27,0,3.9],"rotation":[-0.4072085,-0.5780841,-0.5780841,0.4072085]},{"name":"Box_350x300x250_Prefab (2)","mesh":7,"translation":[28.82,0,22.5],"rotation":[-0.6161592,-0.346911937,-0.346911937,0.6161592]},{"name":"Box_350x200x250_Prefab (11)","mesh":6,"translation":[26.2,0,61.8000031],"rotation":[-0.441324323,0.55247885,0.55247885,0.441324323]},{"name":"Box_350x200x250_Prefab (12)","mesh":6,"translation":[-39.06,0,53.1300049],"rotation":[-0.441324323,0.55247885,0.55247885,0.441324323]},{"name":"Box_100x100x100_Prefab (19)","mesh":3,"translation":[-7,0.5,60.3000031],"rotation":[0,0.0342903659,0,0.999411941]},{"name":"Box_100x100x100_Prefab (20)","mesh":3,"translation":[6.33,0.5,-15.87]},{"name":"Box_100x100x100_Prefab (21)","mesh":3,"translation":[27.1499977,0.5,-9.28]},{"name":"Box_350x200x250_Prefab (13)","mesh":6,"translation":[-40.42,0,-12.99],"rotation":[-0.6637225,0.243869692,0.243869692,0.6637225]},{"name":"Box_350x200x250_Prefab (14)","mesh":6,"translation":[7.3,0,40.8000031],"rotation":[-0.6637225,0.243869692,0.243869692,0.6637225]},{"name":"Structure_Prefab","mesh":9,"translation":[-3.3802,0.0021935,12.375]},{"name":"Playground","children":[5,6,7,8,9,10,11,12,13,14,15,16,17,18,19,20,21,22,23,24,25,26,27,28,29,30,31,32,33,34,35,36,37,38,39,40,41,42,43,44,45,46,47,48,49,50,51],"translation":[4.28,0,-23.6]},{"name":"Ground","mesh":10,"translation":[0.6849,-12.5,1.3632],"scale":[91.1773148,25,90.7640457]},{"name":"Environment","children":[4,52,53]}],"extensionsRequired":["KHR_lights_punctual"],"extensionsUsed":["KHR_lights_punctual"],"buffers":[{"uri":"Environment.bin","byteLength":62208}],"bufferViews":[{"buffer":0,"byteLength":480},{"buffer":0,"byteLength":168,"byteOffset":480},{"buffer":0,"byteLength":936,"byteOffset":648},{"buffer":0,"byteLength":72,"byteOffset":1584},{"buffer":0,"byteLength":216,"byteOffset":1656},{"buffer":0,"byteLength":264,"byteOffset":1872},{"buffer":0,"byteLength":72,"byteOffset":2136},{"buffer":0,"byteLength":72,"byteOffset":2208},{"buffer":0,"byteLength":264,"byteOffset":2280},{"buffer":0,"byteLength":1656,"byteOffset":2544},{"buffer":0,"byteLength":3072,"byteOffset":4200,"byteStride":48},{"buffer":0,"byteLength":1344,"byteOffset":7272,"byteStride":56},{"buffer":0,"byteLength":4928,"byteOffset":8616,"byteStride":56},{"buffer":0,"byteLength":2464,"byteOffset":13544,"byteStride":56},{"buffer":0,"byteLength":13440,"byteOffset":16008,"byteStride":56},{"buffer":0,"byteLength":1344,"byteOffset":29448,"byteStride":56},{"buffer":0,"byteLength":4368,"byteOffset":30792,"byteStride":56},{"buffer":0,"byteLength":1344,"byteOffset":35160,"byteStride":56},{"buffer":0,"byteLength":4032,"byteOffset":36504,"byteStride":56},{"buffer":0,"byteLength":21672,"byteOffset":40536,"byteStride":56}],"accessors":[{"bufferView":12,"componentType":5126,"count":88,"type":"VEC3","max":[0.5,1,0.5],"min":[-0.5000001,-1,-0.500000238]},{"bufferView":12,"componentType":5126,"count":88,"type":"VEC3","byteOffset":12},{"bufferView":12,"componentType":5126,"count":88,"type":"VEC4","byteOffset":24},{"bufferView":12,"componentType":5126,"count":88,"type":"VEC2","byteOffset":40},{"bufferView":12,"componentType":5126,"count":88,"type":"VEC2","byteOffset":48},{"bufferView":0,"componentType":5123,"count":240,"type":"SCALAR"},{"bufferView":13,"componentType":5126,"count":44,"type":"VEC3","max":[0.125,2.00551748,3],"min":[-0.125,0,-3]},{"bufferView":13,"componentType":5126,"count":44,"type":"VEC3","byteOffset":12},{"bufferView":13,"componentType":5126,"count":44,"type":"VEC4","byteOffset":24},{"bufferView":13,"componentType":5126,"count":44,"type":"VEC2","byteOffset":40},{"bufferView":13,"componentType":5126,"count":44,"type":"VEC2","byteOffset":48},{"bufferView":1,"componentType":5123,"count":84,"type":"SCALAR"},{"bufferView":14,"componentType":5126,"count":240,"type":"VEC3","max":[1.5,1.84877348,3.15860438],"min":[-1.5,-1.84550428,-3.49139524]},{"bufferView":14,"componentType":5126,"count":240,"type":"VEC3","byteOffset":12},{"bufferView":14,"componentType":5126,"count":240,"type":"VEC4","byteOffset":24},{"bufferView":14,"componentType":5126,"count":240,"type":"VEC2","byteOffset":40},{"bufferView":14,"componentType":5126,"count":240,"type":"VEC2","byteOffset":48},{"bufferView":2,"componentType":5123,"count":468,"type":"SCALAR"},{"bufferView":15,"componentType":5126,"count":24,"type":"VEC3","max":[0.5,0.5,0.5],"min":[-0.5,-0.5,-0.5]},{"bufferView":15,"componentType":5126,"count":24,"type":"VEC3","byteOffset":12},{"bufferView":15,"componentType":5126,"count":24,"type":"VEC4","byteOffset":24},{"bufferView":15,"componentType":5126,"count":24,"type":"VEC2","byteOffset":40},{"bufferView":15,"componentType":5126,"count":24,"type":"VEC2","byteOffset":48},{"bufferView":3,"componentType":5123,"count":36,"type":"SCALAR"},{"bufferView":16,"componentType":5126,"count":78,"type":"VEC3","max":[3.5000267,0.300868571,5.125005],"min":[-3.500001,0.0008684397,-5.12503147]},{"bufferView":16,"componentType":5126,"count":78,"type":"VEC3","byteOffset":12},{"bufferView":16,"componentType":5126,"count":78,"type":"VEC4","byteOffset":24},{"bufferView":16,"componentType":5126,"count":78,"type":"VEC2","byteOffset":40},{"bufferView":16,"componentType":5126,"count":78,"type":"VEC2","byteOffset":48},{"bufferView":4,"componentType":5123,"count":108,"type":"SCALAR"},{"bufferView":10,"componentType":5126,"count":64,"type":"VEC3","max":[1.251337,3.00000048,2.510011],"min":[-1.251337,-3.00000048,0.00518703461]},{"bufferView":10,"componentType":5126,"count":64,"type":"VEC3","byteOffset":12},{"bufferView":10,"componentType":5126,"count":64,"type":"VEC4","byteOffset":24},{"bufferView":10,"componentType":5126,"count":64,"type":"VEC2","byteOffset":40},{"bufferView":5,"componentType":5123,"count":132,"type":"SCALAR"},{"bufferView":17,"componentType":5126,"count":24,"type":"VEC3","max":[1.74361694,1.250351,2.0004096],"min":[-1.74361694,-1.250351,-0.00243473053]},{"bufferView":17,"componentType":5126,"count":24,"type":"VEC3","byteOffset":12},{"bufferView":17,"componentType":5126,"count":24,"type":"VEC4","byteOffset":24},{"bufferView":17,"componentType":5126,"count":24,"type":"VEC2","byteOffset":40},{"bufferView":17,"componentType":5126,"count":24,"type":"VEC2","byteOffset":48},{"bufferView":6,"componentType":5123,"count":36,"type":"SCALAR"},{"bufferView":11,"componentType":5126,"count":24,"type":"VEC3","max":[1.75,1.25,3],"min":[-1.75,-1.25,0]},{"bufferView":11,"componentType":5126,"count":24,"type":"VEC3","byteOffset":12},{"bufferView":11,"componentType":5126,"count":24,"type":"VEC4","byteOffset":24},{"bufferView":11,"componentType":5126,"count":24,"type":"VEC2","byteOffset":40},{"bufferView":11,"componentType":5126,"count":24,"type":"VEC2","byteOffset":48},{"bufferView":7,"componentType":5123,"count":36,"type":"SCALAR"},{"bufferView":18,"componentType":5126,"count":72,"type":"VEC3","max":[0.999997139,0.500590265,0.993211746],"min":[-1.00000286,-0.5000002,-1.00000024]},{"bufferView":18,"componentType":5126,"count":72,"type":"VEC3","byteOffset":12},{"bufferView":18,"componentType":5126,"count":72,"type":"VEC4","byteOffset":24},{"bufferView":18,"componentType":5126,"count":72,"type":"VEC2","byteOffset":40},{"bufferView":18,"componentType":5126,"count":72,"type":"VEC2","byteOffset":48},{"bufferView":8,"componentType":5123,"count":132,"type":"SCALAR"},{"bufferView":19,"componentType":5126,"count":387,"type":"VEC3","max":[7.13023043,6.99178934,5.250942],"min":[-7.13023043,0.00283002853,-5.25041771]},{"bufferView":19,"componentType":5126,"count":387,"type":"VEC3","byteOffset":12},{"bufferView":19,"componentType":5126,"count":387,"type":"VEC4","byteOffset":24},{"bufferView":19,"componentType":5126,"count":387,"type":"VEC2","byteOffset":40},{"bufferView":19,"componentType":5126,"count":387,"type":"VEC2","byteOffset":48},{"bufferView":9,"componentType":5123,"count":828,"type":"SCALAR"}],"images":[{"name":"Grid_01_Normal.png","uri":"Grid_01_Normal.png","mimeType":"image/png"},{"name":"Grid_02_BaseMap.png","uri":"Grid_02_BaseMap.png","mimeType":"image/png"},{"name":"Grid_02_BaseMap.png","uri":"Grid_02_BaseMap_0.png","mimeType":"image/png"}],"materials":[{"name":"White Material","pbrMetallicRoughness":{"baseColorFactor":[0.2039215,0.286274463,0.3686274,1],"metallicFactor":0.101,"baseColorTexture":{"index":1}},"normalTexture":{"index":0}},{"name":"Ground Mat","pbrMetallicRoughness":{"metallicFactor":0,"roughnessFactor":0.316999972},"normalTexture":{"index":2}}],"meshes":[{"name":"Cylinder","primitives":[{"attributes":{"POSITION":0,"NORMAL":1,"TANGENT":2,"TEXCOORD_0":3,"TEXCOORD_1":4},"indices":5,"material":0}]},{"name":"Wall_Mesh","primitives":[{"attributes":{"POSITION":6,"NORMAL":7,"TANGENT":8,"TEXCOORD_0":9,"TEXCOORD_1":10},"indices":11,"material":0}]},{"name":"Stairs_200_100_200_Mesh","primitives":[{"attributes":{"POSITION":12,"NORMAL":13,"TANGENT":14,"TEXCOORD_0":15,"TEXCOORD_1":16},"indices":17,"material":0}]},{"name":"Cube","primitives":[{"attributes":{"POSITION":18,"NORMAL":19,"TANGENT":20,"TEXCOORD_0":21,"TEXCOORD_1":22},"indices":23,"material":0}]},{"name":"Ramp_Mesh","primitives":[{"attributes":{"POSITION":24,"NORMAL":25,"TANGENT":26,"TEXCOORD_0":27,"TEXCOORD_1":28},"indices":29,"material":0}]},{"name":"Box001","primitives":[{"attributes":{"POSITION":30,"NORMAL":31,"TANGENT":32,"TEXCOORD_0":33},"indices":34,"material":0}]},{"name":"Box_350x200x250_Mesh","primitives":[{"attributes":{"POSITION":35,"NORMAL":36,"TANGENT":37,"TEXCOORD_0":38,"TEXCOORD_1":39},"indices":40,"material":0}]},{"name":"Box_350x300x250_Mesh","primitives":[{"attributes":{"POSITION":41,"NORMAL":42,"TANGENT":43,"TEXCOORD_0":44,"TEXCOORD_1":45},"indices":46,"material":0}]},{"name":"Stairs_200_100_200_Mesh","primitives":[{"attributes":{"POSITION":47,"NORMAL":48,"TANGENT":49,"TEXCOORD_0":50,"TEXCOORD_1":51},"indices":52,"material":0}]},{"name":"Structure_Mesh","primitives":[{"attributes":{"POSITION":53,"NORMAL":54,"TANGENT":55,"TEXCOORD_0":56,"TEXCOORD_1":57},"indices":58,"material":0}]},{"name":"Cube","primitives":[{"attributes":{"POSITION":18,"NORMAL":19,"TANGENT":20,"TEXCOORD_0":21,"TEXCOORD_1":22},"indices":23,"material":1}]}],"scene":0,"scenes":[{"name":"Environment","nodes":[54]}],"textures":[{"source":0},{"source":1},{"source":2}],"extensions":{"KHR_lights_punctual":{"lights":[{"type":"directional","name":"Directional Light","color":[0.9386859,0.9130987,0.745404363]},{"type":"directional","name":"Directional Light (1)","color":[0.9386859,0.9130987,0.745404363]}]}}}