{"asset":{"version":"2.0","generator":"Unity 6000.0.13f1 glTFast 6.7.0"},"nodes":[{"name":"LOD3spShape","mesh":0},{"name":"Camera-1","rotation":[0,-1,0,-4.371139E-08]},{"name":"Node-1","children":[1],"translation":[400.113,463.264,-431.078033],"rotation":[0.121063888,-0.87805897,-0.305772483,-0.3476481]},{"name":"Node-0","children":[0,2],"scale":[0.01,0.01,0.01]}],"buffers":[{"uri":"Node-0.bin","byteLength":127312}],"bufferViews":[{"buffer":0,"byteLength":50544},{"buffer":0,"byteLength":57576,"byteOffset":50544,"byteStride":24},{"buffer":0,"byteLength":19192,"byteOffset":108120,"byteStride":8}],"accessors":[{"bufferView":1,"componentType":5126,"count":2399,"type":"VEC3","max":[96.1799,163.97,53.9251976],"min":[-69.29849,9.929367,-61.3281975]},{"bufferView":1,"componentType":5126,"count":2399,"type":"VEC3","byteOffset":12},{"bufferView":2,"componentType":5126,"count":2399,"type":"VEC2"},{"bufferView":0,"componentType":5125,"count":12636,"type":"SCALAR"}],"images":[{"name":"image_0.png","uri":"image_0.png","mimeType":"image/png"}],"materials":[{"name":"blinn3-fx","pbrMetallicRoughness":{"metallicFactor":0,"baseColorTexture":{"index":0}}}],"meshes":[{"name":"LOD3spShape","primitives":[{"attributes":{"POSITION":0,"NORMAL":1,"TEXCOORD_0":2},"indices":3,"material":0}]}],"samplers":[{"magFilter":9728,"minFilter":9728}],"scene":0,"scenes":[{"name":"Node-0","nodes":[3]}],"textures":[{"source":0,"sampler":0}]}